<svg viewBox="0 0 37 32" fill="none" xmlns="http://www.w3.org/2000/svg"><path opacity=".4" d="m34.36 22.65-6.1-2.3a.8.8 0 0 1-.51-.64l-.31-2.26a7.25 7.25 0 0 0 3.54-6.26v-4.74c0-2.17-1.57-4-3.65-4.26l-.68-1.39a1.4 1.4 0 0 0-1.73-.72l-4.17 1.54a5.84 5.84 0 0 0-3 2.78 9.21 9.21 0 0 1 3.18 7v1.38c.18 2.09.84 4.1 1.93 5.87.37.57.48 1.28.31 1.94a2.38 2.38 0 0 1-1.2 1.53c-.25.12-.5.23-.77.3l1.06.34a4.75 4.75 0 0 1 3.3 4.6v3.8c0 .27-.04.54-.13.8h10.2c.42 0 .77-.36.77-.8v-5.51a3.2 3.2 0 0 0-2.04-3Z" fill="#008275"/><path d="M23.17 31.96h-22.37a.8.8 0 0 1-.8-.81v-3.87c0-1.44.92-2.7 2.28-3.11l5.3-1.62a.8.8 0 0 0 .56-.66l.13-.91c-3.42.53-5.34-.42-5.43-.47a.82.82 0 0 1-.3-1.18 14.88 14.88 0 0 0 2.25-6.85v-1.62c0-2.03.83-3.96 2.28-5.34a7.12 7.12 0 0 1 5.4-1.95 7.4 7.4 0 0 1 6.7 7.5v1.41c.19 2.44.97 4.8 2.27 6.85a.82.82 0 0 1-.3 1.18c-.1.05-2.02 1-5.44.47l.13.91a.8.8 0 0 0 .56.66l5.3 1.62a3.22 3.22 0 0 1 2.28 3.1v3.88a.8.8 0 0 1-.8.81Z" fill="#008275"/></svg>