<svg viewBox="0 0 36 37" fill="none" xmlns="http://www.w3.org/2000/svg"><path opacity=".4" d="M8.64 6.72c-.53 0-.96-.34-.96-.75v-5.22c0-.42.43-.75.96-.75s.96.33.96.75v5.22c0 .41-.43.75-.96.75Zm17.28 0c-.54 0-.96-.34-.96-.75v-5.22c0-.42.43-.75.96-.75s.95.33.95.75v5.22c0 .41-.42.75-.95.75Z" fill="#008275"/><path d="M19.97 32.03h-17.61a.78.78 0 0 1-.79-.79v-18c0-.44.35-.79.79-.79h29.84c.43 0 .78.35.78.78v9.23c.58.38 1.1.82 1.57 1.32v-18.38c0-.86-.7-1.56-1.57-1.56h-4.71v3.13a2.35 2.35 0 0 1-4.71 0v-3.13h-12.57v3.13a2.35 2.35 0 0 1-4.7 0v-3.13h-4.72c-.87 0-1.57.7-1.57 1.56v26.63c0 .86.7 1.56 1.57 1.56h19.01a8.5 8.5 0 0 1-.61-1.56Z" fill="#008275"/><path fill-rule="evenodd" clip-rule="evenodd" d="M35.51 29.27a7.2 7.2 0 1 1-14.4 0 7.2 7.2 0 0 1 14.4 0Zm-7.2-4.8a.8.8 0 0 0-.8.8v4c0 .45.36.8.8.8h4a.8.8 0 0 0 0-1.6h-3.2v-3.2a.8.8 0 0 0-.8-.8Z" fill="#008275"/></svg>