<svg viewBox="0 0 33 32" fill="none" xmlns="http://www.w3.org/2000/svg"><path d="M30.95 19.89a3.88 3.88 0 0 0-6.1.5 3.88 3.88 0 0 0-6.09-.5 4.04 4.04 0 0 0 .22 5.57l5.37 5.4c.28.28.73.28 1.01 0l5.37-5.4a4.04 4.04 0 0 0 .22-5.57Z" fill="#008275"/><path opacity=".4" d="M12.58 18.64h-7.4c-.41 0-.74-.4-.74-.88 0-.5.33-.9.74-.9h7.4c.4 0 .74.4.74.9 0 .49-.34.88-.74.88Z" fill="#008275"/><path opacity=".8" fill-rule="evenodd" clip-rule="evenodd" d="M2.86 0h27.13a2.9 2.9 0 0 1 2.86 2.92v13.16h-1.43v-3.65h-30v9.5c0 .81.65 1.47 1.44 1.47h11.42v1.46h-11.42a2.9 2.9 0 0 1-2.86-2.93v-19a2.9 2.9 0 0 1 2.86-2.93Zm-1.43 6.58h30v-3.66c0-.8-.65-1.46-1.44-1.46h-27.13c-.8 0-1.43.66-1.43 1.46v3.66Z" fill="#008275"/></svg>