<svg viewBox="0 0 24 24" fill="none" xmlns="http://www.w3.org/2000/svg"><g clip-path="url(#a)"><path fill-rule="evenodd" clip-rule="evenodd" d="M12 .79a1.11 1.11 0 0 0-1.11 1.1v2.23h-6.67a2.22 2.22 0 0 0-2.22 2.22v14.45a2.22 2.22 0 0 0 2.22 2.22h15.56a2.22 2.22 0 0 0 2.22-2.22v-14.45a2.22 2.22 0 0 0-2.22-2.22h-6.67v-2.22a1.11 1.11 0 0 0-1.11-1.11Zm1.11 3.33v9.81l2.03-2.03a1.11 1.11 0 0 1 1.57 1.57l-3.73 3.73a1.39 1.39 0 0 1-1.96 0l-3.73-3.73a1.11 1.11 0 1 1 1.57-1.57l2.03 2.03v-9.8h2.22Z" fill="currentColor"/></g><defs><clipPath id="a"><rect width="24" height="24" rx="2" fill="#fff"/></clipPath></defs></svg>