<svg viewBox="0 0 36 36" fill="none" xmlns="http://www.w3.org/2000/svg"><path d="M28.5 16.5a3 3 0 0 1 3 2.77v9.23a3 3 0 0 1-2.77 3h-6.23a3 3 0 0 1-3-2.77v-9.23a3 3 0 0 1 2.77-3h6.23Z" fill="#fff"/><path d="M28.5 4.5a3 3 0 0 1 3 3v3a3 3 0 0 1-3 3h-6a3 3 0 0 1-3-3v-3a3 3 0 0 1 3-3h6Z" fill="#fff" fill-opacity=".5"/><path fill-rule="evenodd" clip-rule="evenodd" d="M13.5 4.5a3 3 0 0 1 3 3v9a3 3 0 0 1-3 3h-6a3 3 0 0 1-3-3v-9a3 3 0 0 1 3-3h6Z" fill="#fff"/><path fill-rule="evenodd" clip-rule="evenodd" d="M13.5 22.5a3 3 0 0 1 3 3v3a3 3 0 0 1-3 3h-6a3 3 0 0 1-3-3v-3a3 3 0 0 1 3-3h6Z" fill="#fff" fill-opacity=".5"/></svg>