<svg viewBox="0 0 36 36" fill="none" xmlns="http://www.w3.org/2000/svg"><path d="M18 4.95c0-.21 0-.32.07-.39.07-.06.17-.06.38-.05a13.5 13.5 0 1 1-12.38 7.16c.1-.18.15-.27.24-.3.1-.03.19.03.37.14l8.32 4.77c.18.1.27.15.3.23.02.08-.02.19-.1.4a3 3 0 1 0 3.25-1.88c-.23-.04-.34-.05-.4-.12-.05-.06-.05-.16-.05-.37v-9.59Z" fill="#fff" fill-opacity=".5"/><path d="M12.97 26.7c-.1.19-.16.28-.13.37.03.1.12.14.3.24a10.5 10.5 0 1 0 5.31-19.8c-.2 0-.31-.01-.38.05-.07.07-.07.18-.07.39v6.6c0 .2 0 .3.05.37.06.07.17.08.4.12a3 3 0 1 1-1.54 5.75c-.22-.08-.32-.12-.4-.1-.08.03-.13.12-.23.3l-3.3 5.71Z" fill="#fff"/></svg>