<svg width="24" height="24" viewBox="0 0 24 24" fill="none" xmlns="http://www.w3.org/2000/svg">
<g clip-path="url(#clip0_4240_22231)">
<path fill-rule="evenodd" clip-rule="evenodd" d="M12 0.789062C11.7053 0.789063 11.4227 0.906126 11.2143 1.1145C11.006 1.32287 10.8889 1.60549 10.8889 1.90017V4.1224H4.22222C3.63285 4.1224 3.06762 4.35652 2.65087 4.77327C2.23413 5.19002 2 5.75525 2 6.34462V20.7891C2 21.3784 2.23413 21.9437 2.65087 22.3604C3.06762 22.7772 3.63285 23.0113 4.22222 23.0113H19.7778C20.3671 23.0113 20.9324 22.7772 21.3491 22.3604C21.7659 21.9437 22 21.3784 22 20.7891V6.34462C22 5.75525 21.7659 5.19002 21.3491 4.77327C20.9324 4.35652 20.3671 4.1224 19.7778 4.1224H13.1111V1.90017C13.1111 1.60549 12.994 1.32287 12.7857 1.1145C12.5773 0.906126 12.2947 0.789063 12 0.789062ZM13.1111 4.1224V13.9313L15.1422 11.9002C15.3506 11.6917 15.6332 11.5745 15.9279 11.5744C16.2227 11.5743 16.5054 11.6913 16.7139 11.8996C16.9224 12.108 17.0396 12.3906 17.0397 12.6853C17.0398 12.9801 16.9228 13.2628 16.7144 13.4713L12.9811 17.2035C12.7207 17.4637 12.3676 17.6099 11.9994 17.6099C11.6313 17.6099 11.2782 17.4637 11.0178 17.2035L7.28556 13.4713C7.1824 13.368 7.10058 13.2455 7.04478 13.1107C6.98897 12.9758 6.96028 12.8313 6.96033 12.6853C6.96038 12.5394 6.98918 12.3949 7.04508 12.2601C7.10097 12.1253 7.18288 12.0028 7.28611 11.8996C7.38935 11.7965 7.51189 11.7146 7.64674 11.6588C7.78159 11.603 7.92612 11.5743 8.07206 11.5744C8.218 11.5744 8.36251 11.6032 8.49732 11.6591C8.63213 11.715 8.75462 11.7969 8.85778 11.9002L10.8889 13.9313V4.1224H13.1111Z" fill="#0000EE"/>
</g>
<defs>
<clipPath id="clip0_4240_22231">
<rect width="24" height="24" rx="2" fill="white"/>
</clipPath>
</defs>
</svg>
