<svg viewBox="0 0 42 42" fill="none" xmlns="http://www.w3.org/2000/svg"><path d="M21 3.5a17.5 17.5 0 1 0 .01 35.01 17.5 17.5 0 0 0-.01-35.01Zm8.12 11.9a204.1 204.1 0 0 1-1.98 12.58c-.24 1.32-.73 1.75-1.19 1.8-1.01.1-1.78-.66-2.76-1.3-1.54-1.02-2.42-1.65-3.9-2.63-1.74-1.14-.62-1.77.38-2.79.26-.26 4.74-4.33 4.83-4.7a.35.35 0 0 0-.09-.32c-.1-.09-.24-.05-.36-.03-.16.03-2.61 1.66-7.39 4.88-.7.47-1.33.72-1.89.7-.63-.02-1.82-.35-2.71-.65-1.1-.35-1.96-.54-1.9-1.15.04-.32.48-.63 1.3-.96 5.11-2.23 8.5-3.7 10.2-4.4 4.87-2.03 5.87-2.38 6.53-2.38.14 0 .47.04.68.21a.7.7 0 0 1 .25.47c-.02.11.02.42 0 .67Z" fill="#5E13FF"/></svg>