<svg viewBox="0 0 24 24" fill="none" xmlns="http://www.w3.org/2000/svg"><path d="M14.2 10.62v-4.06c0-.92-.17-1.1-1.08-1.1l-2.58-.06c-.8 0-1.21 0-1.37.26-.17.26.01.62.37 1.33.2.4.31.68.31 1.13v2.92c0 .93 0 1.4-.35 1.53-.35.13-.64-.18-1.23-.8-1.43-1.52-2.17-3.42-2.66-5.5-.1-.42-.16-.63-.3-.75-.16-.12-.38-.12-.8-.12h-2.43c-.53 0-.8 0-.96.19-.16.18-.13.42-.07.9.58 4.32 4.38 11.4 11.4 12.08 1.24.12 1.75-.22 1.75-1.58 0-.77-.02-2.02.95-2.18.51-.09.86.1 1.42.57.99.83 1.5 1.84 1.87 2.6.24.51.41.62.97.62h2.29c1.15 0 1.46-.28.95-1.37a9.9 9.9 0 0 0-2.42-3.18c-.7-.6-1.05-.9-1.06-1.12-.03-.22.23-.54.74-1.16a16.43 16.43 0 0 0 2.97-5.14c.31-1 .02-1.23-1-1.23h-2.04c-1 0-1-.04-1.23 1.1a10.4 10.4 0 0 1-2.8 4.77c-.55.57-.89.91-1.23.77-.35-.14-.38-.56-.38-1.42Z" stroke="#8C8AFF" stroke-width="1.65" stroke-linecap="round" stroke-linejoin="round"/></svg>