<svg viewBox="0 0 24 24" fill="none" xmlns="http://www.w3.org/2000/svg"><path d="M4.26 4.26c-1.26 1.27-1.26 3.3-1.26 7.38v.72c0 4.07 0 6.1 1.26 7.38 1.27 1.26 3.3 1.26 7.38 1.26h.72c4.07 0 6.1 0 7.38-1.26 1.26-1.27 1.26-3.3 1.26-7.38v-.72c0-4.07 0-6.1-1.26-7.38-1.27-1.26-3.3-1.26-7.38-1.26h-.72c-4.07 0-6.1 0-7.38 1.26Zm1.78 4.22h2.06c.07 3.43 1.58 4.88 2.78 5.18v-5.18h1.94v2.96c1.18-.13 2.43-1.48 2.85-2.97h1.93a5.72 5.72 0 0 1-2.63 3.74 5.92 5.92 0 0 1 3.08 3.76h-2.13a3.7 3.7 0 0 0-3.1-2.68v2.68h-.24c-4.1 0-6.45-2.81-6.54-7.5Z" fill="#fff"/></svg>