<svg viewBox="0 0 42 42" fill="none" xmlns="http://www.w3.org/2000/svg"><path d="M21 3.5a17.5 17.5 0 1 1-8.8 32.63l-8.7 2.37 2.37-8.7a17.5 17.5 0 0 1 15.13-26.3Zm-5.96 9.28h-.35a1.8 1.8 0 0 0-.65.18c-.2.11-.37.25-.52.4-.2.2-.33.37-.45.54a4.8 4.8 0 0 0-1 2.94c0 .85.23 1.69.58 2.47.72 1.58 1.9 3.25 3.45 4.8.37.37.74.74 1.14 1.1a16.54 16.54 0 0 0 6.72 3.57l1 .15c.32.02.64 0 .96-.02a3.54 3.54 0 0 0 1.46-.4c.23-.12.46-.25.67-.39l.22-.16c.24-.17.38-.3.58-.5.15-.15.27-.33.37-.53a5.27 5.27 0 0 0 .35-1.93c0-.19-.16-.38-.33-.47l-1.02-.45-2.45-1.09a.88.88 0 0 0-.31-.07.84.84 0 0 0-.66.22c-.01 0-.13.1-1.4 1.63a.61.61 0 0 1-.64.23 2.45 2.45 0 0 1-.33-.12l-.44-.19a10.5 10.5 0 0 1-2.76-1.75l-.64-.6a11.63 11.63 0 0 1-1.78-2.23l-.1-.16a1.75 1.75 0 0 1-.18-.36c-.07-.26.1-.47.1-.47s.43-.46.63-.71c.19-.25.35-.49.46-.66.2-.33.27-.67.16-.93-.49-1.2-1-2.4-1.52-3.58-.1-.23-.4-.4-.69-.43a5.91 5.91 0 0 0-.99-.02l.36-.01Z" fill="#5E13FF"/></svg>